<svg width="24" height="24" viewBox="0 0 24 24" fill="none" xmlns="http://www.w3.org/2000/svg">
<path fill-rule="evenodd" clip-rule="evenodd" d="M7 5C7 3.34315 8.34315 2 10 2H14C15.6569 2 17 3.34315 17 5V6H22V8H20V19C20 20.6569 18.6569 22 17 22H7C5.34315 22 4 20.6569 4 19V8H2V6H7V5ZM15 5V6H9V5C9 4.44772 9.44772 4 10 4H14C14.5523 4 15 4.44772 15 5ZM6 8H7H17H18V19C18 19.5523 17.5523 20 17 20H7C6.44772 20 6 19.5523 6 19V8ZM7 10V18H9V10H7ZM11 18V10H13V18H11ZM15 10V18H17V10H15Z" fill="#111111"/>
</svg>
